<svg width="30" height="30" viewBox="0 0 30 30" fill="none" xmlns="http://www.w3.org/2000/svg">
<path d="M2.5 20C1.80964 20 1.25 20.5596 1.25 21.25C1.25 21.9404 1.80964 22.5 2.5 22.5V20ZM6.25 11.25H5H6.25ZM23.75 11.25H25H23.75ZM17.1625 26.25L18.2438 26.8772C18.4681 26.4905 18.4688 26.0135 18.2457 25.6261C18.0226 25.2387 17.6095 25 17.1625 25V26.25ZM12.8375 26.25V25C12.3905 25 11.9775 25.2387 11.7543 25.6261C11.5312 26.0135 11.5319 26.4905 11.7563 26.8772L12.8375 26.25ZM27.5 20H2.5V22.5H27.5V20ZM2.5 22.5C5.26142 22.5 7.5 20.2614 7.5 17.5H5C5 18.8807 3.88071 20 2.5 20V22.5ZM7.5 17.5V11.25H5V17.5H7.5ZM7.5 11.25C7.5 7.10786 10.8579 3.75 15 3.75V1.25C9.47715 1.25 5 5.72715 5 11.25H7.5ZM15 3.75C19.1421 3.75 22.5 7.10786 22.5 11.25H25C25 5.72715 20.5228 1.25 15 1.25V3.75ZM22.5 11.25V17.5H25V11.25H22.5ZM22.5 17.5C22.5 20.2614 24.7386 22.5 27.5 22.5V20C26.1193 20 25 18.8807 25 17.5H22.5ZM16.0813 25.6228C15.8576 26.0083 15.4457 26.2456 15 26.2456V28.7456C16.337 28.7456 17.5729 28.0337 18.2438 26.8772L16.0813 25.6228ZM15 26.2456C14.5543 26.2456 14.1424 26.0083 13.9188 25.6228L11.7563 26.8772C12.4271 28.0337 13.663 28.7456 15 28.7456V26.2456ZM12.8375 27.5H17.1625V25H12.8375V27.5Z" fill="#131515"/>
</svg>
